<mxfile host="drawio-plugin" modified="2024-04-04T07:47:10.245Z" agent="5.0 (X11; Linux x86_64) AppleWebKit/537.36 (KHTML, like Gecko) Chrome/111.0.0.0 Safari/537.36" etag="2cnA5lY24tOY-pLm4Gde" version="20.5.3" type="embed"><diagram id="23iRSUPoRavnBvh4doch" name="Page-1"><mxGraphModel dx="1544" dy="907" grid="1" gridSize="10" guides="1" tooltips="1" connect="1" arrows="1" fold="1" page="0" pageScale="1" pageWidth="827" pageHeight="1169" math="0" shadow="0"><root><mxCell id="0"/><mxCell id="1" parent="0"/><mxCell id="34" value="" style="html=1;" vertex="1" parent="1"><mxGeometry x="600" y="120" width="440" height="530" as="geometry"/></mxCell><mxCell id="32" value="&lt;br&gt;" style="html=1;" vertex="1" parent="1"><mxGeometry x="-290" y="120" width="420" height="530" as="geometry"/></mxCell><mxCell id="23" value="MessageSenderImpl" style="swimlane;fontStyle=1;align=center;verticalAlign=top;childLayout=stackLayout;horizontal=1;startSize=26;horizontalStack=0;resizeParent=1;resizeParentMax=0;resizeLast=0;collapsible=1;marginBottom=0;" vertex="1" parent="1"><mxGeometry x="-220" y="326" width="310" height="86" as="geometry"/></mxCell><mxCell id="24" value="+ messageSenderAdapter: MessageSenderAdapter" style="text;strokeColor=none;fillColor=none;align=left;verticalAlign=top;spacingLeft=4;spacingRight=4;overflow=hidden;rotatable=0;points=[[0,0.5],[1,0.5]];portConstraint=eastwest;" vertex="1" parent="23"><mxGeometry y="26" width="310" height="26" as="geometry"/></mxCell><mxCell id="25" value="" style="line;strokeWidth=1;fillColor=none;align=left;verticalAlign=middle;spacingTop=-1;spacingLeft=3;spacingRight=3;rotatable=0;labelPosition=right;points=[];portConstraint=eastwest;strokeColor=inherit;" vertex="1" parent="23"><mxGeometry y="52" width="310" height="8" as="geometry"/></mxCell><mxCell id="26" value="+ sendMessage(MessageType, String msg): " style="text;strokeColor=none;fillColor=none;align=left;verticalAlign=top;spacingLeft=4;spacingRight=4;overflow=hidden;rotatable=0;points=[[0,0.5],[1,0.5]];portConstraint=eastwest;" vertex="1" parent="23"><mxGeometry y="60" width="310" height="26" as="geometry"/></mxCell><mxCell id="28" value="CoolMessageSenderImpl" style="swimlane;fontStyle=1;align=center;verticalAlign=top;childLayout=stackLayout;horizontal=1;startSize=26;horizontalStack=0;resizeParent=1;resizeParentMax=0;resizeLast=0;collapsible=1;marginBottom=0;" vertex="1" parent="1"><mxGeometry x="620" y="342" width="210" height="60" as="geometry"/></mxCell><mxCell id="30" value="" style="line;strokeWidth=1;fillColor=none;align=left;verticalAlign=middle;spacingTop=-1;spacingLeft=3;spacingRight=3;rotatable=0;labelPosition=right;points=[];portConstraint=eastwest;strokeColor=inherit;" vertex="1" parent="28"><mxGeometry y="26" width="210" height="8" as="geometry"/></mxCell><mxCell id="31" value="+ sendMessage(Message msg): " style="text;strokeColor=none;fillColor=none;align=left;verticalAlign=top;spacingLeft=4;spacingRight=4;overflow=hidden;rotatable=0;points=[[0,0.5],[1,0.5]];portConstraint=eastwest;" vertex="1" parent="28"><mxGeometry y="34" width="210" height="26" as="geometry"/></mxCell><mxCell id="33" value="OUR CODE" style="text;html=1;align=center;verticalAlign=middle;resizable=0;points=[];autosize=1;strokeColor=#001DBC;fillColor=#0050ef;fontColor=#ffffff;" vertex="1" parent="1"><mxGeometry x="-100" y="120" width="90" height="30" as="geometry"/></mxCell><mxCell id="35" value="3rd Party Lib" style="text;html=1;align=center;verticalAlign=middle;resizable=0;points=[];autosize=1;strokeColor=#001DBC;fillColor=#0050ef;fontColor=#ffffff;" vertex="1" parent="1"><mxGeometry x="775" y="120" width="90" height="30" as="geometry"/></mxCell><mxCell id="37" value="" style="endArrow=block;dashed=1;endFill=0;endSize=12;html=1;rounded=0;entryX=0.469;entryY=1.038;entryDx=0;entryDy=0;exitX=0.5;exitY=0;exitDx=0;exitDy=0;entryPerimeter=0;" edge="1" parent="1" source="23" target="41"><mxGeometry width="160" relative="1" as="geometry"><mxPoint x="80" y="260" as="sourcePoint"/><mxPoint x="255" y="220" as="targetPoint"/></mxGeometry></mxCell><mxCell id="38" value="«interface»&#10;MessageSender" style="swimlane;fontStyle=1;align=center;verticalAlign=top;childLayout=stackLayout;horizontal=1;startSize=36;horizontalStack=0;resizeParent=1;resizeParentMax=0;resizeLast=0;collapsible=1;marginBottom=0;" vertex="1" parent="1"><mxGeometry x="-180" y="166" width="250" height="74" as="geometry"/></mxCell><mxCell id="40" value="" style="line;strokeWidth=1;fillColor=none;align=left;verticalAlign=middle;spacingTop=-1;spacingLeft=3;spacingRight=3;rotatable=0;labelPosition=right;points=[];portConstraint=eastwest;strokeColor=inherit;" vertex="1" parent="38"><mxGeometry y="36" width="250" height="8" as="geometry"/></mxCell><mxCell id="41" value="+ sendMessage(MessageType, String msg): " style="text;strokeColor=none;fillColor=none;align=left;verticalAlign=top;spacingLeft=4;spacingRight=4;overflow=hidden;rotatable=0;points=[[0,0.5],[1,0.5]];portConstraint=eastwest;" vertex="1" parent="38"><mxGeometry y="44" width="250" height="30" as="geometry"/></mxCell><mxCell id="43" value="«interface»&#10;CoolMessageSender" style="swimlane;fontStyle=1;align=center;verticalAlign=top;childLayout=stackLayout;horizontal=1;startSize=36;horizontalStack=0;resizeParent=1;resizeParentMax=0;resizeLast=0;collapsible=1;marginBottom=0;" vertex="1" parent="1"><mxGeometry x="695" y="170" width="250" height="74" as="geometry"/></mxCell><mxCell id="44" value="" style="line;strokeWidth=1;fillColor=none;align=left;verticalAlign=middle;spacingTop=-1;spacingLeft=3;spacingRight=3;rotatable=0;labelPosition=right;points=[];portConstraint=eastwest;strokeColor=inherit;" vertex="1" parent="43"><mxGeometry y="36" width="250" height="8" as="geometry"/></mxCell><mxCell id="45" value="+ sendMessage(Message msg): " style="text;strokeColor=none;fillColor=none;align=left;verticalAlign=top;spacingLeft=4;spacingRight=4;overflow=hidden;rotatable=0;points=[[0,0.5],[1,0.5]];portConstraint=eastwest;" vertex="1" parent="43"><mxGeometry y="44" width="250" height="30" as="geometry"/></mxCell><mxCell id="46" value="" style="endArrow=block;dashed=1;endFill=0;endSize=12;html=1;rounded=0;entryX=0.502;entryY=1.065;entryDx=0;entryDy=0;exitX=0.5;exitY=0;exitDx=0;exitDy=0;entryPerimeter=0;" edge="1" parent="1" source="28" target="45"><mxGeometry width="160" relative="1" as="geometry"><mxPoint x="699.9999999999998" y="354.86" as="sourcePoint"/><mxPoint x="862.2499999999998" y="270.0000000000001" as="targetPoint"/></mxGeometry></mxCell><mxCell id="48" value="MessageSenderAdapter" style="swimlane;fontStyle=1;align=center;verticalAlign=top;childLayout=stackLayout;horizontal=1;startSize=26;horizontalStack=0;resizeParent=1;resizeParentMax=0;resizeLast=0;collapsible=1;marginBottom=0;fillColor=#e3c800;fontColor=#000000;strokeColor=#B09500;" vertex="1" parent="1"><mxGeometry x="230" y="390" width="280" height="86" as="geometry"/></mxCell><mxCell id="49" value="+ coolMessageSender: CoolMessageSender" style="text;strokeColor=none;fillColor=none;align=left;verticalAlign=top;spacingLeft=4;spacingRight=4;overflow=hidden;rotatable=0;points=[[0,0.5],[1,0.5]];portConstraint=eastwest;" vertex="1" parent="48"><mxGeometry y="26" width="280" height="26" as="geometry"/></mxCell><mxCell id="50" value="" style="line;strokeWidth=1;fillColor=none;align=left;verticalAlign=middle;spacingTop=-1;spacingLeft=3;spacingRight=3;rotatable=0;labelPosition=right;points=[];portConstraint=eastwest;strokeColor=inherit;" vertex="1" parent="48"><mxGeometry y="52" width="280" height="8" as="geometry"/></mxCell><mxCell id="51" value="+ sendMessage(MessageType, String msg): " style="text;strokeColor=none;fillColor=none;align=left;verticalAlign=top;spacingLeft=4;spacingRight=4;overflow=hidden;rotatable=0;points=[[0,0.5],[1,0.5]];portConstraint=eastwest;" vertex="1" parent="48"><mxGeometry y="60" width="280" height="26" as="geometry"/></mxCell><mxCell id="52" value="" style="endArrow=block;dashed=1;endFill=0;endSize=12;html=1;rounded=0;entryX=0.868;entryY=1.159;entryDx=0;entryDy=0;exitX=0.472;exitY=0;exitDx=0;exitDy=0;entryPerimeter=0;exitPerimeter=0;fillColor=#e3c800;strokeColor=#B09500;" edge="1" parent="1" source="48" target="41"><mxGeometry width="160" relative="1" as="geometry"><mxPoint x="359.9999999999998" y="314.86" as="sourcePoint"/><mxPoint x="362.2499999999998" y="230.0000000000001" as="targetPoint"/></mxGeometry></mxCell><mxCell id="53" value="Use" style="endArrow=open;endSize=12;dashed=1;html=1;rounded=0;entryX=0.003;entryY=1.065;entryDx=0;entryDy=0;entryPerimeter=0;exitX=0.75;exitY=0;exitDx=0;exitDy=0;fillColor=#e3c800;strokeColor=#B09500;" edge="1" parent="1" source="48" target="45"><mxGeometry width="160" relative="1" as="geometry"><mxPoint x="380" y="320" as="sourcePoint"/><mxPoint x="540" y="320" as="targetPoint"/></mxGeometry></mxCell><mxCell id="54" value="Use" style="endArrow=open;endSize=12;dashed=1;html=1;rounded=0;entryX=-0.013;entryY=1.02;entryDx=0;entryDy=0;entryPerimeter=0;exitX=0.464;exitY=1.174;exitDx=0;exitDy=0;exitPerimeter=0;" edge="1" parent="1" source="26" target="51"><mxGeometry width="160" relative="1" as="geometry"><mxPoint x="-230" y="600.05" as="sourcePoint"/><mxPoint x="25.75" y="456.00000000000006" as="targetPoint"/></mxGeometry></mxCell><mxCell id="55" value="Message" style="swimlane;fontStyle=1;align=center;verticalAlign=top;childLayout=stackLayout;horizontal=1;startSize=26;horizontalStack=0;resizeParent=1;resizeParentMax=0;resizeLast=0;collapsible=1;marginBottom=0;fillColor=default;gradientColor=none;" vertex="1" parent="1"><mxGeometry x="880" y="352" width="160" height="34" as="geometry"/></mxCell><mxCell id="57" value="" style="line;strokeWidth=1;fillColor=none;align=left;verticalAlign=middle;spacingTop=-1;spacingLeft=3;spacingRight=3;rotatable=0;labelPosition=right;points=[];portConstraint=eastwest;strokeColor=inherit;" vertex="1" parent="55"><mxGeometry y="26" width="160" height="8" as="geometry"/></mxCell><mxCell id="59" value="Use" style="endArrow=open;endSize=12;dashed=1;html=1;rounded=0;entryX=0.5;entryY=0;entryDx=0;entryDy=0;exitX=0.991;exitY=1.104;exitDx=0;exitDy=0;exitPerimeter=0;" edge="1" parent="1" source="45" target="55"><mxGeometry width="160" relative="1" as="geometry"><mxPoint x="830" y="300" as="sourcePoint"/><mxPoint x="990" y="300" as="targetPoint"/></mxGeometry></mxCell><mxCell id="60" value="Use" style="endArrow=open;endSize=12;dashed=1;html=1;rounded=0;exitX=1;exitY=0.5;exitDx=0;exitDy=0;entryX=0.003;entryY=0.551;entryDx=0;entryDy=0;entryPerimeter=0;" edge="1" parent="1" source="31" target="57"><mxGeometry width="160" relative="1" as="geometry"><mxPoint x="880" y="370" as="sourcePoint"/><mxPoint x="877.5" y="254.75" as="targetPoint"/></mxGeometry></mxCell></root></mxGraphModel></diagram></mxfile>